<?xml version="1.0" encoding="UTF-8" standalone="no"?><svg xmlns="http://www.w3.org/2000/svg" xmlns:xlink="http://www.w3.org/1999/xlink" contentScriptType="application/ecmascript" contentStyleType="text/css" height="305px" preserveAspectRatio="none" style="width:490px;height:305px;" version="1.1" viewBox="0 0 490 305" width="490px" zoomAndPan="magnify"><defs><filter height="300%" id="f1li33vimxy28n" width="300%" x="-1" y="-1"><feGaussianBlur result="blurOut" stdDeviation="2.0"/><feColorMatrix in="blurOut" result="blurOut2" type="matrix" values="0 0 0 0 0 0 0 0 0 0 0 0 0 0 0 0 0 0 .4 0"/><feOffset dx="4.0" dy="4.0" in="blurOut2" result="blurOut3"/><feBlend in="SourceGraphic" in2="blurOut3" mode="normal"/></filter></defs><g><!--MD5=[444f1811c9c94670a3084ce836bad1b7]
class SpanProtocol--><rect codeLine="2" fill="#FEFECE" filter="url(#f1li33vimxy28n)" height="48" id="SpanProtocol" style="stroke:#A80036;stroke-width:1.5;" width="116" x="267" y="243"/><ellipse cx="282" cy="259" fill="#B4A7E5" rx="11" ry="11" style="stroke:#A80036;stroke-width:1.0;"/><path d="M277.9219,254.7656 L277.9219,252.6094 L285.3125,252.6094 L285.3125,254.7656 L282.8438,254.7656 L282.8438,262.8438 L285.3125,262.8438 L285.3125,265 L277.9219,265 L277.9219,262.8438 L280.3906,262.8438 L280.3906,254.7656 L277.9219,254.7656 Z " fill="#000000"/><text fill="#000000" font-family="sans-serif" font-size="12" font-style="italic" lengthAdjust="spacing" textLength="84" x="296" y="263.1543">SpanProtocol</text><line style="stroke:#A80036;stroke-width:1.5;" x1="268" x2="382" y1="275" y2="275"/><line style="stroke:#A80036;stroke-width:1.5;" x1="268" x2="382" y1="283" y2="283"/><!--MD5=[dd5d6f4507a0f103eb9fa4ce67d0efbb]
class UIViewControllerPerformanceTracker--><rect codeLine="4" fill="#FEFECE" filter="url(#f1li33vimxy28n)" height="48" id="UIViewControllerPerformanceTracker" style="stroke:#A80036;stroke-width:1.5;" width="260" x="7" y="7"/><ellipse cx="22" cy="23" fill="#ADD1B2" rx="11" ry="11" style="stroke:#A80036;stroke-width:1.0;"/><path d="M24.9688,28.6406 Q24.3906,28.9375 23.75,29.0781 Q23.1094,29.2344 22.4063,29.2344 Q19.9063,29.2344 18.5781,27.5938 Q17.2656,25.9375 17.2656,22.8125 Q17.2656,19.6875 18.5781,18.0313 Q19.9063,16.375 22.4063,16.375 Q23.1094,16.375 23.75,16.5313 Q24.4063,16.6875 24.9688,16.9844 L24.9688,19.7031 Q24.3438,19.125 23.75,18.8594 Q23.1563,18.5781 22.5313,18.5781 Q21.1875,18.5781 20.5,19.6563 Q19.8125,20.7188 19.8125,22.8125 Q19.8125,24.9063 20.5,25.9844 Q21.1875,27.0469 22.5313,27.0469 Q23.1563,27.0469 23.75,26.7813 Q24.3438,26.5 24.9688,25.9219 L24.9688,28.6406 Z " fill="#000000"/><text fill="#000000" font-family="sans-serif" font-size="12" lengthAdjust="spacing" textLength="228" x="36" y="27.1543">UIViewControllerPerformanceTracker</text><line style="stroke:#A80036;stroke-width:1.5;" x1="8" x2="266" y1="39" y2="39"/><line style="stroke:#A80036;stroke-width:1.5;" x1="8" x2="266" y1="47" y2="47"/><!--MD5=[84df0051f5f90101587a521d203b1e2f]
class PerformanceTracker--><rect codeLine="5" fill="#FEFECE" filter="url(#f1li33vimxy28n)" height="48" id="PerformanceTracker" style="stroke:#A80036;stroke-width:1.5;" width="159" x="82.5" y="125"/><ellipse cx="97.5" cy="141" fill="#ADD1B2" rx="11" ry="11" style="stroke:#A80036;stroke-width:1.0;"/><path d="M100.4688,146.6406 Q99.8906,146.9375 99.25,147.0781 Q98.6094,147.2344 97.9063,147.2344 Q95.4063,147.2344 94.0781,145.5938 Q92.7656,143.9375 92.7656,140.8125 Q92.7656,137.6875 94.0781,136.0313 Q95.4063,134.375 97.9063,134.375 Q98.6094,134.375 99.25,134.5313 Q99.9063,134.6875 100.4688,134.9844 L100.4688,137.7031 Q99.8438,137.125 99.25,136.8594 Q98.6563,136.5781 98.0313,136.5781 Q96.6875,136.5781 96,137.6563 Q95.3125,138.7188 95.3125,140.8125 Q95.3125,142.9063 96,143.9844 Q96.6875,145.0469 98.0313,145.0469 Q98.6563,145.0469 99.25,144.7813 Q99.8438,144.5 100.4688,143.9219 L100.4688,146.6406 Z " fill="#000000"/><text fill="#000000" font-family="sans-serif" font-size="12" lengthAdjust="spacing" textLength="127" x="111.5" y="145.1543">PerformanceTracker</text><line style="stroke:#A80036;stroke-width:1.5;" x1="83.5" x2="240.5" y1="157" y2="157"/><line style="stroke:#A80036;stroke-width:1.5;" x1="83.5" x2="240.5" y1="165" y2="165"/><!--MD5=[ee9488d59ae591c160ed77b2bd860180]
class Span--><rect codeLine="6" fill="#FEFECE" filter="url(#f1li33vimxy28n)" height="60.8047" id="Span" style="stroke:#A80036;stroke-width:1.5;" width="73" x="403.5" y="119"/><ellipse cx="422.55" cy="135" fill="#ADD1B2" rx="11" ry="11" style="stroke:#A80036;stroke-width:1.0;"/><path d="M425.5188,140.6406 Q424.9406,140.9375 424.3,141.0781 Q423.6594,141.2344 422.9563,141.2344 Q420.4563,141.2344 419.1281,139.5938 Q417.8156,137.9375 417.8156,134.8125 Q417.8156,131.6875 419.1281,130.0313 Q420.4563,128.375 422.9563,128.375 Q423.6594,128.375 424.3,128.5313 Q424.9563,128.6875 425.5188,128.9844 L425.5188,131.7031 Q424.8938,131.125 424.3,130.8594 Q423.7063,130.5781 423.0813,130.5781 Q421.7375,130.5781 421.05,131.6563 Q420.3625,132.7188 420.3625,134.8125 Q420.3625,136.9063 421.05,137.9844 Q421.7375,139.0469 423.0813,139.0469 Q423.7063,139.0469 424.3,138.7813 Q424.8938,138.5 425.5188,137.9219 L425.5188,140.6406 Z " fill="#000000"/><text fill="#000000" font-family="sans-serif" font-size="12" lengthAdjust="spacing" textLength="32" x="437.45" y="139.1543">Span</text><line style="stroke:#A80036;stroke-width:1.5;" x1="404.5" x2="475.5" y1="151" y2="151"/><text fill="#000000" font-family="sans-serif" font-size="11" lengthAdjust="spacing" textLength="61" x="409.5" y="165.2104">timestamp</text><line style="stroke:#A80036;stroke-width:1.5;" x1="404.5" x2="475.5" y1="171.8047" y2="171.8047"/><!--MD5=[27402d7bbc98a32515322aa02d4a78ac]
class Tracer--><rect codeLine="9" fill="#FEFECE" filter="url(#f1li33vimxy28n)" height="48" id="Tracer" style="stroke:#A80036;stroke-width:1.5;" width="72" x="302" y="7"/><ellipse cx="317" cy="23" fill="#ADD1B2" rx="11" ry="11" style="stroke:#A80036;stroke-width:1.0;"/><path d="M319.9688,28.6406 Q319.3906,28.9375 318.75,29.0781 Q318.1094,29.2344 317.4063,29.2344 Q314.9063,29.2344 313.5781,27.5938 Q312.2656,25.9375 312.2656,22.8125 Q312.2656,19.6875 313.5781,18.0313 Q314.9063,16.375 317.4063,16.375 Q318.1094,16.375 318.75,16.5313 Q319.4063,16.6875 319.9688,16.9844 L319.9688,19.7031 Q319.3438,19.125 318.75,18.8594 Q318.1563,18.5781 317.5313,18.5781 Q316.1875,18.5781 315.5,19.6563 Q314.8125,20.7188 314.8125,22.8125 Q314.8125,24.9063 315.5,25.9844 Q316.1875,27.0469 317.5313,27.0469 Q318.1563,27.0469 318.75,26.7813 Q319.3438,26.5 319.9688,25.9219 L319.9688,28.6406 Z " fill="#000000"/><text fill="#000000" font-family="sans-serif" font-size="12" lengthAdjust="spacing" textLength="40" x="331" y="27.1543">Tracer</text><line style="stroke:#A80036;stroke-width:1.5;" x1="303" x2="373" y1="39" y2="39"/><line style="stroke:#A80036;stroke-width:1.5;" x1="303" x2="373" y1="47" y2="47"/><!--MD5=[0d87fd6c13303704664d16dcdaf6f939]
link Span to SpanProtocol--><path codeLine="11" d="M406.7372,183.1305 C392.9518,197.2755 376.8915,213.7548 362.6739,228.3433 " fill="none" id="Span-to-SpanProtocol" style="stroke:#A80036;stroke-width:1.0;"/><polygon fill="none" points="367.6693,233.247,348.6973,242.6845,357.6432,223.4758,367.6693,233.247" style="stroke:#A80036;stroke-width:1.0;"/><!--MD5=[00fdb0b78fb70a1d833a8151e2f80e9b]
link Tracer to SpanProtocol--><path codeLine="12" d="M328.5217,55.3673 C320.9988,94.7749 315.9902,173.0676 317.223,222.5862 " fill="none" id="Tracer-to-SpanProtocol" style="stroke:#A80036;stroke-width:1.0;"/><polygon fill="none" points="324.2244,222.4451,318.2169,242.7653,310.2414,223.1339,324.2244,222.4451" style="stroke:#A80036;stroke-width:1.0;"/><!--MD5=[538a1f16cda0ccc285955e68a1f6bfad]
reverse link Tracer to SpanProtocol--><path codeLine="16" d="M346.1199,68.4453 C348.3279,117.3284 343.1623,201.5011 334.9305,242.7653 " fill="none" id="Tracer-backto-SpanProtocol" style="stroke:#A80036;stroke-width:1.0;"/><polygon fill="#A80036" points="345.2724,55.3673,341.6688,61.6134,346.0484,67.3422,349.652,61.0961,345.2724,55.3673" style="stroke:#A80036;stroke-width:1.0;"/><text fill="#000000" font-family="sans-serif" font-size="13" lengthAdjust="spacing" textLength="8" x="338.07" y="75.218">1</text><text fill="#000000" font-family="sans-serif" font-size="13" lengthAdjust="spacing" textLength="36" x="296.9636" y="232.113">many</text><!--MD5=[89a05c1504f08707f6904f10ca0e4d4c]
reverse link UIViewControllerPerformanceTracker to PerformanceTracker--><path codeLine="14" d="M144.8292,67.9537 C148.7629,86.5208 153.4174,108.4901 156.8874,124.8685 " fill="none" id="UIViewControllerPerformanceTracker-backto-PerformanceTracker" style="stroke:#A80036;stroke-width:1.0;"/><polygon fill="#A80036" points="142.1195,55.1638,139.45,61.8626,144.6068,66.9032,147.2763,60.2044,142.1195,55.1638" style="stroke:#A80036;stroke-width:1.0;"/><!--MD5=[ab708733d359b21ec2d549da2ce95a4d]
reverse link PerformanceTracker to SpanProtocol--><path codeLine="15" d="M206.0791,180.91 C233.0302,200.4206 266.9547,224.9795 291.6658,242.8685 " fill="none" id="PerformanceTracker-backto-SpanProtocol" style="stroke:#A80036;stroke-width:1.0;"/><polygon fill="#A80036" points="195.3788,173.1638,197.8933,179.9223,205.099,180.2006,202.5845,173.4422,195.3788,173.1638" style="stroke:#A80036;stroke-width:1.0;"/><text fill="#000000" font-family="sans-serif" font-size="13" lengthAdjust="spacing" textLength="8" x="194.5399" y="192.9649">1</text><text fill="#000000" font-family="sans-serif" font-size="13" lengthAdjust="spacing" textLength="36" x="242.5114" y="231.8468">many</text><!--MD5=[05b143f356dd12931ae28be762d175eb]
link Tracer to Span--><path codeLine="17" d="M347.5887,55.1473 C362.8809,92.7424 392.2618,161 404,161 " fill="none" id="Tracer-Span" style="stroke:#A80036;stroke-width:1.0;"/><text fill="#000000" font-family="sans-serif" font-size="13" lengthAdjust="spacing" textLength="63" x="357.6041" y="74.9444">observers</text><!--MD5=[8f2905e2eeb696c86a2855fdb08d863f]
@startuml

interface SpanProtocol

class UIViewControllerPerformanceTracker
class PerformanceTracker
class Span {
    timestamp
}
class Tracer

Span - -|> SpanProtocol
Tracer - -|> SpanProtocol

UIViewControllerPerformanceTracker *- - PerformanceTracker
PerformanceTracker "1" *- - "many" SpanProtocol 
Tracer "1" *- - "many" SpanProtocol
Tracer "observers" - -  Span::timestamp


@enduml

PlantUML version 1.2021.01(Tue Feb 02 07:55:08 UTC 2021)
(GPL source distribution)
Java Runtime: OpenJDK Runtime Environment
JVM: OpenJDK 64-Bit Server VM
Default Encoding: UTF-8
Language: en
Country: null
--></g></svg>