<?xml version="1.0" encoding="UTF-8" standalone="no"?><svg xmlns="http://www.w3.org/2000/svg" xmlns:xlink="http://www.w3.org/1999/xlink" contentScriptType="application/ecmascript" contentStyleType="text/css" height="298px" preserveAspectRatio="none" style="width:360px;height:298px;" version="1.1" viewBox="0 0 360 298" width="360px" zoomAndPan="magnify"><defs><filter height="300%" id="f1mrdr8q458z4" width="300%" x="-1" y="-1"><feGaussianBlur result="blurOut" stdDeviation="2.0"/><feColorMatrix in="blurOut" result="blurOut2" type="matrix" values="0 0 0 0 0 0 0 0 0 0 0 0 0 0 0 0 0 0 .4 0"/><feOffset dx="4.0" dy="4.0" in="blurOut2" result="blurOut3"/><feBlend in="SourceGraphic" in2="blurOut3" mode="normal"/></filter></defs><g><!--MD5=[444f1811c9c94670a3084ce836bad1b7]
class SpanProtocol--><rect codeLine="2" fill="#FEFECE" filter="url(#f1mrdr8q458z4)" height="48" id="SpanProtocol" style="stroke:#A80036;stroke-width:1.5;" width="116" x="89" y="7"/><ellipse cx="104" cy="23" fill="#B4A7E5" rx="11" ry="11" style="stroke:#A80036;stroke-width:1.0;"/><path d="M99.9219,18.7656 L99.9219,16.6094 L107.3125,16.6094 L107.3125,18.7656 L104.8438,18.7656 L104.8438,26.8438 L107.3125,26.8438 L107.3125,29 L99.9219,29 L99.9219,26.8438 L102.3906,26.8438 L102.3906,18.7656 L99.9219,18.7656 Z " fill="#000000"/><text fill="#000000" font-family="sans-serif" font-size="12" font-style="italic" lengthAdjust="spacing" textLength="84" x="118" y="27.1543">SpanProtocol</text><line style="stroke:#A80036;stroke-width:1.5;" x1="90" x2="204" y1="39" y2="39"/><line style="stroke:#A80036;stroke-width:1.5;" x1="90" x2="204" y1="47" y2="47"/><!--MD5=[ee9488d59ae591c160ed77b2bd860180]
class Span--><rect codeLine="4" fill="#FEFECE" filter="url(#f1mrdr8q458z4)" height="60.8047" id="Span" style="stroke:#A80036;stroke-width:1.5;" width="73" x="56.5" y="115"/><ellipse cx="75.55" cy="131" fill="#ADD1B2" rx="11" ry="11" style="stroke:#A80036;stroke-width:1.0;"/><path d="M78.5188,136.6406 Q77.9406,136.9375 77.3,137.0781 Q76.6594,137.2344 75.9563,137.2344 Q73.4563,137.2344 72.1281,135.5938 Q70.8156,133.9375 70.8156,130.8125 Q70.8156,127.6875 72.1281,126.0313 Q73.4563,124.375 75.9563,124.375 Q76.6594,124.375 77.3,124.5313 Q77.9563,124.6875 78.5188,124.9844 L78.5188,127.7031 Q77.8938,127.125 77.3,126.8594 Q76.7063,126.5781 76.0813,126.5781 Q74.7375,126.5781 74.05,127.6563 Q73.3625,128.7188 73.3625,130.8125 Q73.3625,132.9063 74.05,133.9844 Q74.7375,135.0469 76.0813,135.0469 Q76.7063,135.0469 77.3,134.7813 Q77.8938,134.5 78.5188,133.9219 L78.5188,136.6406 Z " fill="#000000"/><text fill="#000000" font-family="sans-serif" font-size="12" lengthAdjust="spacing" textLength="32" x="90.45" y="135.1543">Span</text><line style="stroke:#A80036;stroke-width:1.5;" x1="57.5" x2="128.5" y1="147" y2="147"/><text fill="#000000" font-family="sans-serif" font-size="11" lengthAdjust="spacing" textLength="61" x="62.5" y="161.2104">timestamp</text><line style="stroke:#A80036;stroke-width:1.5;" x1="57.5" x2="128.5" y1="167.8047" y2="167.8047"/><!--MD5=[27402d7bbc98a32515322aa02d4a78ac]
class Tracer--><rect codeLine="7" fill="#FEFECE" filter="url(#f1mrdr8q458z4)" height="48" id="Tracer" style="stroke:#A80036;stroke-width:1.5;" width="72" x="180" y="121.5"/><ellipse cx="195" cy="137.5" fill="#ADD1B2" rx="11" ry="11" style="stroke:#A80036;stroke-width:1.0;"/><path d="M197.9688,143.1406 Q197.3906,143.4375 196.75,143.5781 Q196.1094,143.7344 195.4063,143.7344 Q192.9063,143.7344 191.5781,142.0938 Q190.2656,140.4375 190.2656,137.3125 Q190.2656,134.1875 191.5781,132.5313 Q192.9063,130.875 195.4063,130.875 Q196.1094,130.875 196.75,131.0313 Q197.4063,131.1875 197.9688,131.4844 L197.9688,134.2031 Q197.3438,133.625 196.75,133.3594 Q196.1563,133.0781 195.5313,133.0781 Q194.1875,133.0781 193.5,134.1563 Q192.8125,135.2188 192.8125,137.3125 Q192.8125,139.4063 193.5,140.4844 Q194.1875,141.5469 195.5313,141.5469 Q196.1563,141.5469 196.75,141.2813 Q197.3438,141 197.9688,140.4219 L197.9688,143.1406 Z " fill="#000000"/><text fill="#000000" font-family="sans-serif" font-size="12" lengthAdjust="spacing" textLength="40" x="209" y="141.6543">Tracer</text><line style="stroke:#A80036;stroke-width:1.5;" x1="181" x2="251" y1="153.5" y2="153.5"/><line style="stroke:#A80036;stroke-width:1.5;" x1="181" x2="251" y1="161.5" y2="161.5"/><!--MD5=[a13b6a2addb37727fa1bf245c326dbee]
class SpanContext--><rect codeLine="8" fill="#FEFECE" filter="url(#f1mrdr8q458z4)" height="48" id="SpanContext" style="stroke:#A80036;stroke-width:1.5;" width="112" x="7" y="236"/><ellipse cx="22" cy="252" fill="#ADD1B2" rx="11" ry="11" style="stroke:#A80036;stroke-width:1.0;"/><path d="M24.9688,257.6406 Q24.3906,257.9375 23.75,258.0781 Q23.1094,258.2344 22.4063,258.2344 Q19.9063,258.2344 18.5781,256.5938 Q17.2656,254.9375 17.2656,251.8125 Q17.2656,248.6875 18.5781,247.0313 Q19.9063,245.375 22.4063,245.375 Q23.1094,245.375 23.75,245.5313 Q24.4063,245.6875 24.9688,245.9844 L24.9688,248.7031 Q24.3438,248.125 23.75,247.8594 Q23.1563,247.5781 22.5313,247.5781 Q21.1875,247.5781 20.5,248.6563 Q19.8125,249.7188 19.8125,251.8125 Q19.8125,253.9063 20.5,254.9844 Q21.1875,256.0469 22.5313,256.0469 Q23.1563,256.0469 23.75,255.7813 Q24.3438,255.5 24.9688,254.9219 L24.9688,257.6406 Z " fill="#000000"/><text fill="#000000" font-family="sans-serif" font-size="12" lengthAdjust="spacing" textLength="80" x="36" y="256.1543">SpanContext</text><line style="stroke:#A80036;stroke-width:1.5;" x1="8" x2="118" y1="268" y2="268"/><line style="stroke:#A80036;stroke-width:1.5;" x1="8" x2="118" y1="276" y2="276"/><!--MD5=[2dee36f97fa9125c337eb2bc97d3c523]
class TransactionContext--><rect codeLine="9" fill="#FEFECE" filter="url(#f1mrdr8q458z4)" height="48" id="TransactionContext" style="stroke:#A80036;stroke-width:1.5;" width="154" x="154" y="236"/><ellipse cx="169" cy="252" fill="#ADD1B2" rx="11" ry="11" style="stroke:#A80036;stroke-width:1.0;"/><path d="M171.9688,257.6406 Q171.3906,257.9375 170.75,258.0781 Q170.1094,258.2344 169.4063,258.2344 Q166.9063,258.2344 165.5781,256.5938 Q164.2656,254.9375 164.2656,251.8125 Q164.2656,248.6875 165.5781,247.0313 Q166.9063,245.375 169.4063,245.375 Q170.1094,245.375 170.75,245.5313 Q171.4063,245.6875 171.9688,245.9844 L171.9688,248.7031 Q171.3438,248.125 170.75,247.8594 Q170.1563,247.5781 169.5313,247.5781 Q168.1875,247.5781 167.5,248.6563 Q166.8125,249.7188 166.8125,251.8125 Q166.8125,253.9063 167.5,254.9844 Q168.1875,256.0469 169.5313,256.0469 Q170.1563,256.0469 170.75,255.7813 Q171.3438,255.5 171.9688,254.9219 L171.9688,257.6406 Z " fill="#000000"/><text fill="#000000" font-family="sans-serif" font-size="12" lengthAdjust="spacing" textLength="122" x="183" y="256.1543">TransactionContext</text><line style="stroke:#A80036;stroke-width:1.5;" x1="155" x2="307" y1="268" y2="268"/><line style="stroke:#A80036;stroke-width:1.5;" x1="155" x2="307" y1="276" y2="276"/><!--MD5=[4555bb1b0911a5adf28ce6dbe60fed2e]
class Transaction--><rect codeLine="10" fill="#FEFECE" filter="url(#f1mrdr8q458z4)" height="48" id="Transaction" style="stroke:#A80036;stroke-width:1.5;" width="106" x="240" y="7"/><ellipse cx="255" cy="23" fill="#ADD1B2" rx="11" ry="11" style="stroke:#A80036;stroke-width:1.0;"/><path d="M257.9688,28.6406 Q257.3906,28.9375 256.75,29.0781 Q256.1094,29.2344 255.4063,29.2344 Q252.9063,29.2344 251.5781,27.5938 Q250.2656,25.9375 250.2656,22.8125 Q250.2656,19.6875 251.5781,18.0313 Q252.9063,16.375 255.4063,16.375 Q256.1094,16.375 256.75,16.5313 Q257.4063,16.6875 257.9688,16.9844 L257.9688,19.7031 Q257.3438,19.125 256.75,18.8594 Q256.1563,18.5781 255.5313,18.5781 Q254.1875,18.5781 253.5,19.6563 Q252.8125,20.7188 252.8125,22.8125 Q252.8125,24.9063 253.5,25.9844 Q254.1875,27.0469 255.5313,27.0469 Q256.1563,27.0469 256.75,26.7813 Q257.3438,26.5 257.9688,25.9219 L257.9688,28.6406 Z " fill="#000000"/><text fill="#000000" font-family="sans-serif" font-size="12" lengthAdjust="spacing" textLength="74" x="269" y="27.1543">Transaction</text><line style="stroke:#A80036;stroke-width:1.5;" x1="241" x2="345" y1="39" y2="39"/><line style="stroke:#A80036;stroke-width:1.5;" x1="241" x2="345" y1="47" y2="47"/><!--MD5=[414f49af6a334097d4f1aa8222528845]
reverse link SpanProtocol to Span--><path codeLine="12" d="M127.0343,73.3346 C120.519,87.1495 113.4162,102.21 107.3929,114.9818 " fill="none" id="SpanProtocol-backto-Span" style="stroke:#A80036;stroke-width:1.0;"/><polygon fill="none" points="120.8174,70.1062,135.6798,55.003,133.4798,76.0781,120.8174,70.1062" style="stroke:#A80036;stroke-width:1.0;"/><!--MD5=[946699ca81fb527ceec6da3ffb17d83f]
reverse link SpanProtocol to Tracer--><path codeLine="13" d="M159.9092,72.8873 C168.7855,89.1117 180.1923,107.1137 190.659,121.1343 " fill="none" id="SpanProtocol-backto-Tracer" style="stroke:#A80036;stroke-width:1.0;"/><polygon fill="none" points="153.6437,76.0089,150.8596,55.003,166.1355,69.6879,153.6437,76.0089" style="stroke:#A80036;stroke-width:1.0;"/><!--MD5=[538a1f16cda0ccc285955e68a1f6bfad]
reverse link Tracer to SpanProtocol--><path codeLine="18" d="M206.7844,109.1947 C197.596,91.4954 184.5853,70.6982 172.6936,55.003 " fill="none" id="Tracer-backto-SpanProtocol" style="stroke:#A80036;stroke-width:1.0;"/><polygon fill="#A80036" points="212.6014,121.1343,213.5694,113.9885,207.3456,110.3465,206.3776,117.4924,212.6014,121.1343" style="stroke:#A80036;stroke-width:1.0;"/><text fill="#000000" font-family="sans-serif" font-size="13" lengthAdjust="spacing" textLength="8" x="202.798" y="110.4501">1</text><text fill="#000000" font-family="sans-serif" font-size="13" lengthAdjust="spacing" textLength="36" x="138.6651" y="75.1596">many</text><!--MD5=[06aca3c82cf64e23d84d9ff3f23a61d1]
reverse link Tracer to TransactionContext--><path codeLine="14" d="M220.8373,182.4245 C223.1203,199.8514 225.7816,220.1659 227.808,235.6343 " fill="none" id="Tracer-backto-TransactionContext" style="stroke:#A80036;stroke-width:1.0;"/><polygon fill="#A80036" points="219.1445,169.503,215.9578,175.9718,220.7033,181.4013,223.89,174.9326,219.1445,169.503" style="stroke:#A80036;stroke-width:1.0;"/><!--MD5=[5f3ebaf7566ce3ae714dab4e8f2a60bc]
reverse link Span to SpanContext--><path codeLine="15" d="M81.5964,189.0238 C77.4462,204.8636 72.9057,222.1932 69.3502,235.7634 " fill="none" id="Span-backto-SpanContext" style="stroke:#A80036;stroke-width:1.0;"/><polygon fill="#A80036" points="84.9606,176.1839,79.5705,180.9741,81.9191,187.7921,87.3092,183.0018,84.9606,176.1839" style="stroke:#A80036;stroke-width:1.0;"/><!--MD5=[842bd349f7061c70137881aec21a669a]
reverse link Transaction to Tracer--><path codeLine="16" d="M269.5449,65.8781 C257.5311,83.7428 243.198,105.0563 232.3857,121.1343 " fill="none" id="Transaction-backto-Tracer" style="stroke:#A80036;stroke-width:1.0;"/><polygon fill="#A80036" points="276.8583,55.003,270.1908,57.7497,270.1618,64.9608,276.8293,62.214,276.8583,55.003" style="stroke:#A80036;stroke-width:1.0;"/><!--MD5=[47febb011810343c743c8f06b7fdce09]
@startuml

interface SpanProtocol

class Span {
    timestamp
}
class Tracer
class SpanContext
class TransactionContext
class Transaction

Span - -up|> SpanProtocol
Tracer - -up|> SpanProtocol
Tracer *- - TransactionContext
Span *- - SpanContext
Transaction *- - Tracer

Tracer "1" *- - "many" SpanProtocol


@enduml

PlantUML version 1.2021.01(Tue Feb 02 07:55:08 UTC 2021)
(GPL source distribution)
Java Runtime: OpenJDK Runtime Environment
JVM: OpenJDK 64-Bit Server VM
Default Encoding: UTF-8
Language: en
Country: null
--></g></svg>